# xmcd
#
# Track frame offsets: 
#        150
#        6627
#        20727
#        33775
#        43677
#        56157
#        65670
#        81797
#        90600
#        104227
#        113505
#
# Disc length: 1758 seconds
#
# Revision: 0
# Processed by: cddbd v1.5.2PL0 Copyright (c) Steve Scherf et al.
# Submitted via: ExactAudioCopy v0.99pb5
#
DISCID=9406dc0b
DTITLE=Waldir Azevedo  - Os Grandes Sucessos de Waldir Azevedo 
DYEAR=1968
DGENRE=
TTITLE0=Brasileirinho
TTITLE1=Chorinho Antigo 
TTITLE2=Eu Sonhei Que Tu Estavas Tão Linda 
TTITLE3=Lamento
TTITLE4=Naquele Tempo 
TTITLE5=Guacyra 
TTITLE6=Pedacinho Do Céu 
TTITLE7=Atrevido
TTITLE8=Ave Maria 
TTITLE9=Baião Caçula 
TTITLE10=Abismo De Rosas 
EXTD=
EXTT0=
EXTT1=
EXTT2=
EXTT3=
EXTT4=
EXTT5=
EXTT6=
EXTT7=
EXTT8=
EXTT9=
EXTT10=
PLAYORDER=
